<svg width="45" height="48" viewBox="0 0 45 48" fill="none" xmlns="http://www.w3.org/2000/svg">
<g id="camera">
<mask id="mask0_81_181" style="mask-type:alpha" maskUnits="userSpaceOnUse" x="0" y="0" width="45" height="48">
<rect id="Bounding box" width="44.9244" height="48" rx="22.4622" fill="#D9D9D9"/>
</mask>
<g mask="url(#mask0_81_181)">
<path id="camera_2" d="M24.9168 10.9263C23.249 14.0943 25.5463 17.9 29.1266 17.9H29.9527C33.5816 17.9 36.0145 14.2414 33.4861 11.6383C33.4003 11.5499 33.3133 11.4621 33.2253 11.375C32.2991 10.4584 31.3102 9.68202 30.2584 9.04573C28.3289 7.87843 25.9674 8.93078 24.9168 10.9263ZM12.8817 14.8589C14.6232 17.9806 19.1222 17.9578 20.832 14.8186L24.4305 8.21168C24.7164 7.68672 24.3698 7.04628 23.7724 7.025C23.3045 7.00833 22.8677 7 22.4622 7C20.2159 7 18.1569 7.43333 16.285 8.3C15.4209 8.70009 14.5967 9.17121 13.8124 9.71337C12.1592 10.8561 11.9026 13.1038 12.8817 14.8589ZM6.64502 26.2C6.74986 27.4883 7.9126 28.35 9.20511 28.35H10.5036C13.9611 28.35 16.1812 24.6767 14.5738 21.6155L12.8186 18.2729C11.5659 15.8875 8.30562 15.6655 7.46395 18.225C6.8556 20.075 6.55143 22 6.55143 24C6.55143 24.7 6.58263 25.4333 6.64502 26.2ZM14.7844 39.0021C16.691 40.1163 18.994 39.0796 20.0471 37.1386C21.7701 33.963 19.471 30.1 15.8582 30.1H15.0256C11.3932 30.1 8.95429 33.7627 11.4773 36.3759C11.5581 36.4595 11.6397 36.5425 11.7224 36.625C12.6703 37.5708 13.6909 38.3632 14.7844 39.0021ZM22.4622 41C24.7084 41 26.7752 40.5667 28.6627 39.7C29.5408 39.2968 30.3734 38.8214 31.1604 38.2738C32.793 37.138 33.0375 34.9148 32.0747 33.1745C30.3408 30.0405 25.8318 30.0499 24.1111 33.1912L20.5077 39.7693C20.2166 40.3008 20.5697 40.9527 21.1753 40.975C21.6276 40.9917 22.0566 41 22.4622 41ZM32.2184 29.8362C33.4267 32.1448 36.5408 32.3133 37.3902 29.85C38.0453 27.95 38.3729 26 38.3729 24C38.3729 23.2667 38.3417 22.525 38.2793 21.775C38.1726 20.4931 37.0368 19.6 35.7505 19.6H34.3282C30.9315 19.6 28.7485 23.2064 30.3236 26.2158L32.2184 29.8362ZM22.4622 44C19.904 44 17.4862 43.475 15.2087 42.425C12.9313 41.375 10.9425 39.9417 9.24221 38.125C7.54195 36.3083 6.20046 34.1833 5.21773 31.75C4.23501 29.3167 3.74365 26.7333 3.74365 24C3.74365 21.2333 4.23501 18.6417 5.21773 16.225C6.20046 13.8083 7.54195 11.6917 9.24221 9.875C10.9425 8.05833 12.9313 6.625 15.2087 5.575C17.4862 4.525 19.904 4 22.4622 4C25.0515 4 27.4772 4.525 29.739 5.575C32.0008 6.625 33.9818 8.05833 35.6821 9.875C37.3824 11.6917 38.7239 13.8083 39.7066 16.225C40.6893 18.6417 41.1807 21.2333 41.1807 24C41.1807 26.7333 40.6893 29.3167 39.7066 31.75C38.7239 34.1833 37.3824 36.3083 35.6821 38.125C33.9818 39.9417 32.0008 41.375 29.739 42.425C27.4772 43.475 25.0515 44 22.4622 44Z" fill="#730000"/>
</g>
</g>
</svg>
