<svg width="48" height="48" viewBox="0 0 48 48" fill="none" xmlns="http://www.w3.org/2000/svg">
<g id="digital_wellbeing">
<mask id="mask0_34_231" style="mask-type:alpha" maskUnits="userSpaceOnUse" x="0" y="0" width="48" height="48">
<rect id="Bounding box" width="48" height="48" fill="#D9D9D9"/>
</mask>
<g mask="url(#mask0_34_231)">
<path id="digital_wellbeing_2" d="M24 17.4C22.1495 17.4 20.5703 16.746 19.2622 15.4379C17.9541 14.1298 17.3 12.5505 17.3 10.7C17.3 8.84953 17.9541 7.27025 19.2622 5.96215C20.5703 4.65405 22.1495 4 24 4C25.8505 4 27.4298 4.65405 28.7379 5.96215C30.046 7.27025 30.7 8.84953 30.7 10.7C30.7 12.5505 30.046 14.1298 28.7379 15.4379C27.4298 16.746 25.8505 17.4 24 17.4ZM24 14.4C25.1 14.4 25.9917 14.0583 26.675 13.375C27.3583 12.6917 27.7 11.8 27.7 10.7C27.7 9.6 27.3583 8.70833 26.675 8.025C25.9917 7.34167 25.1 7 24 7C22.9 7 22.0083 7.34167 21.325 8.025C20.6417 8.70833 20.3 9.6 20.3 10.7C20.3 11.8 20.6417 12.6917 21.325 13.375C22.0083 14.0583 22.9 14.4 24 14.4ZM24 44L12 32C11.4 31.4 10.9167 30.6583 10.55 29.775C10.1833 28.8917 10 27.8667 10 26.7C10 24.8333 10.6583 23.2417 11.975 21.925C13.2917 20.6083 14.8833 19.95 16.75 19.95C17.6299 19.95 18.4416 20.15 19.185 20.55C19.9283 20.95 20.5833 21.4333 21.15 22L24 24.85L26.85 22C27.4167 21.4333 28.0717 20.95 28.8151 20.55C29.5585 20.15 30.3701 19.95 31.25 19.95C33.1167 19.95 34.7083 20.6083 36.025 21.925C37.3417 23.2417 38 24.8333 38 26.7C38 27.8667 37.8167 28.8917 37.45 29.775C37.0833 30.6583 36.6 31.4 36 32L24 44ZM24 39.65L33.8 29.85C34.2 29.4563 34.5 29.0078 34.7 28.5047C34.9 28.0016 35 27.4 35 26.7C35 25.7 34.625 24.825 33.875 24.075C33.125 23.325 32.2483 22.95 31.2448 22.95C30.7816 22.95 30.35 23.0333 29.95 23.2C29.55 23.3667 29.2167 23.5833 28.95 23.85L24 28.8L19.05 23.85C18.7833 23.5833 18.45 23.3667 18.05 23.2C17.65 23.0333 17.2167 22.95 16.75 22.95C15.75 22.95 14.875 23.325 14.125 24.075C13.375 24.825 13 25.7 13 26.7C13 27.4 13.1 28 13.3 28.5C13.5 29 13.8 29.45 14.2 29.85L24 39.65Z" fill="#730000"/>
</g>
</g>
</svg>
