<svg width="45" height="48" viewBox="0 0 45 48" fill="none" xmlns="http://www.w3.org/2000/svg">
<g id="digital_wellbeing">
<mask id="mask0_81_178" style="mask-type:alpha" maskUnits="userSpaceOnUse" x="0" y="0" width="45" height="48">
<rect id="Bounding box" width="44.9244" height="48" rx="22.4622" fill="#D9D9D9"/>
</mask>
<g mask="url(#mask0_81_178)">
<path id="digital_wellbeing_2" d="M22.4621 17.4C20.7302 17.4 19.2521 16.746 18.0278 15.4379C16.8035 14.1298 16.1914 12.5505 16.1914 10.7C16.1914 8.84953 16.8035 7.27025 18.0278 5.96215C19.2521 4.65405 20.7302 4 22.4621 4C24.194 4 25.6721 4.65405 26.8964 5.96215C28.1206 7.27025 28.7328 8.84953 28.7328 10.7C28.7328 12.5505 28.1206 14.1298 26.8964 15.4379C25.6721 16.746 24.194 17.4 22.4621 17.4ZM22.4621 14.4C23.4916 14.4 24.3261 14.0583 24.9657 13.375C25.6052 12.6917 25.925 11.8 25.925 10.7C25.925 9.6 25.6052 8.70833 24.9657 8.025C24.3261 7.34167 23.4916 7 22.4621 7C21.4326 7 20.598 7.34167 19.9585 8.025C19.3189 8.70833 18.9992 9.6 18.9992 10.7C18.9992 11.8 19.3189 12.6917 19.9585 13.375C20.598 14.0583 21.4326 14.4 22.4621 14.4ZM33.6932 32C27.6143 38.495 17.3098 38.495 11.231 32C10.6694 31.4 10.2171 30.6583 9.87389 29.775C9.53072 28.8917 9.35913 27.8667 9.35913 26.7C9.35913 24.8333 9.97528 23.2417 11.2076 21.925C12.4399 20.6083 13.9296 19.95 15.6766 19.95C16.5001 19.95 17.2598 20.15 17.9556 20.55C18.6513 20.95 19.2643 21.4333 19.7947 22C21.2384 23.5426 23.6857 23.5426 25.1295 22C25.6598 21.4333 26.2729 20.95 26.9686 20.55C27.6644 20.15 28.424 19.95 29.2475 19.95C30.9946 19.95 32.4843 20.6083 33.7166 21.925C34.9489 23.2417 35.565 24.8333 35.565 26.7C35.565 27.8667 35.3934 28.8917 35.0503 29.775C34.7071 30.6583 34.2547 31.4 33.6932 32ZM13.29 29.85C18.2544 35.1543 26.6697 35.1543 31.6341 29.85C32.0085 29.4563 32.2893 29.0078 32.4765 28.5047C32.6637 28.0016 32.7573 27.4 32.7573 26.7C32.7573 25.7 32.4063 24.825 31.7043 24.075C31.0024 23.325 30.1818 22.95 29.2426 22.95C28.8091 22.95 28.4052 23.0333 28.0308 23.2C27.6565 23.3667 27.3445 23.5833 27.0949 23.85C24.5874 26.5292 20.3368 26.5292 17.8293 23.85C17.5797 23.5833 17.2677 23.3667 16.8933 23.2C16.519 23.0333 16.1134 22.95 15.6766 22.95C14.7407 22.95 13.9218 23.325 13.2198 24.075C12.5179 24.825 12.1669 25.7 12.1669 26.7C12.1669 27.4 12.2605 28 12.4477 28.5C12.6349 29 12.9156 29.45 13.29 29.85Z" fill="#730000"/>
</g>
</g>
</svg>
