<svg width="48" height="48" viewBox="0 0 48 48" fill="none" xmlns="http://www.w3.org/2000/svg">
<g id="power">
<mask id="mask0_34_236" style="mask-type:alpha" maskUnits="userSpaceOnUse" x="0" y="0" width="48" height="48">
<rect id="Bounding box" width="48" height="48" fill="#D9D9D9"/>
</mask>
<g mask="url(#mask0_34_236)">
<path id="power_2" d="M22.1 39H25.9V34.9L33 27.1V17.55H15V27.1L22.1 34.885V39ZM19.1 42V36.1L12 28.3V17.55C12 16.725 12.2937 16.0188 12.8813 15.4313C13.4688 14.8438 14.175 14.55 15 14.55H18.6L17.1 16.05V6H20.1V14.55H27.9V6H30.9V16.05L29.4 14.55H33C33.825 14.55 34.5312 14.8438 35.1187 15.4313C35.7062 16.0188 36 16.725 36 17.55V28.3L28.9 36.1V42H19.1Z" fill="#730000"/>
</g>
</g>
</svg>
